<?xml version="1.0" encoding="UTF-8"?>
<svg width="1112px" height="363px" viewBox="0 0 1112 363" version="1.1" xmlns="http://www.w3.org/2000/svg" xmlns:xlink="http://www.w3.org/1999/xlink">
    <title>logo-color</title>
    <g id="logo-color" stroke="none" stroke-width="1" fill="none" fill-rule="evenodd">
        <path d="M173.338069,336.766831 L82.1301638,336.766831 L82.1301638,331.378631 L160.950048,331.378631 C155.667979,328.946966 150.517591,326.249196 145.519493,323.296116 L47.5157478,323.296116 L47.5157478,317.907485 L136.982302,317.907485 C133.195609,315.3562 129.521667,312.662028 125.960477,309.82497 L14,309.82497 L14,304.435477 L119.538474,304.435477 C83.7955949,272.999952 63.3969355,228.122621 63.4492912,181.038505 L63.4492912,179.961468 C63.4413205,165.220915 65.433869,150.544887 69.3744555,136.319935 L112.19308,136.319935 C94.0774893,184.157117 106.982305,237.98331 144.936114,272.891653 L192.326446,115.845034 L76.5467684,115.845034 C102.119686,56.0229618 162.391363,14 232.675813,14 L233.774042,14 C293.883621,14 346.668013,44.7390622 376.689636,91.0585393 L324.616457,91.0585393 C300.395672,67.2512928 267.510874,53.8740971 233.218671,53.8788658 C198.926469,53.8836345 166.04554,67.2699755 141.831641,91.0839574 L200.351424,91.0839574 L200.249508,91.4079301 L235.402056,115.845034" id="矩形_4" fill="#0168B7" fill-rule="nonzero"></path>
        <path d="M233.776678,346.999973 L232.678449,346.999973 C218.556131,347.007838 204.488089,345.285599 190.801226,341.872847 L202.681865,303.555754 C212.682721,305.934531 222.937203,307.134931 233.228002,307.131516 C304.537758,307.131516 362.34545,250.438882 362.34545,180.505587 C362.347011,170.152077 361.055244,159.83737 358.499013,149.791943 L250.35554,149.791943 L262.216412,111.535595 L387.991729,111.535595 C397.915384,133.032484 403.032646,156.363356 402.999843,179.960607 L402.999843,181.037643 C402.999843,272.696063 327.235952,346.999973 233.77492,346.999973 L233.776678,346.999973 Z" id="矩形_4-path" fill="#F28920" fill-rule="nonzero"></path>
        <path d="M484.925781,122.812043 L469.791016,195.758332 C469.428922,198.998012 469.767138,201.332484 470.805664,202.76175 C471.84419,204.191015 473.761507,204.960709 476.557617,205.070832 L503.152344,205.070832 C506.668331,204.223766 509.162472,202.954072 510.634766,201.26175 C512.10706,199.569428 512.725549,197.261322 512.490234,194.337433 L505.361328,143.313996 L523.973633,143.313996 L531.570891,194.337433 C533.266756,201.645978 532.168907,208.106752 528.277344,213.719758 C524.38578,219.332763 518.504921,222.937743 510.634766,224.534699 L466.831055,224.534699 C459.803528,222.824952 454.876445,220.582928 452.049805,217.808625 C449.223164,215.034322 447.539896,210.788391 447,205.070832 L461.977539,122.812043 L484.925781,122.812043 Z M1063.22702,54 C1069.8937,55.509776 1074.91177,57.9494022 1078.28125,61.3188787 C1081.54862,64.5862499 1084.02596,69.4881384 1085.71327,76.0245442 L1085.86914,76.6421209 L1085.86914,200.880402 C1084.28597,207.01175 1081.75667,211.815135 1078.28125,215.290558 C1074.92167,218.650134 1070.29959,221.147204 1064.41501,222.781769 L1063.80176,222.947785 L1041.92578,222.947785 L1041.92578,203.745026 L1057.79333,203.745026 C1060.262,203.372223 1062.26481,202.417349 1063.80176,200.880402 C1065.26552,199.416643 1065.95548,197.776173 1065.87165,195.958992 L1065.85327,195.68509 L1065.85327,83.9324041 C1065.83714,79.9673769 1064.96172,77.117513 1063.22702,75.3828125 C1061.55427,73.7100656 1058.72785,72.7195792 1054.74776,72.4113535 L1054.30078,72.3799139 L931.945801,72.3799139 C928.63737,72.7192486 926.151855,73.7202148 924.489258,75.3828125 C922.895935,76.9761353 922.097395,79.138088 922.093639,81.8686707 L922.097656,82.2280584 L922.097656,224.266144 L903.106445,224.266144 L903.106445,75.3828125 C904.346278,69.5840813 906.754807,64.8961033 910.332031,61.3188787 C913.790015,57.8608949 918.314995,55.4659336 923.906971,54.1339948 L924.489258,54 L1063.22702,54 Z M595.633301,120.340851 C594.480957,146.682974 595.966471,164.713084 600.089844,174.431183 C604.153457,184.00844 614.148432,193.372293 630.074769,202.522743 L630.78125,202.926301 L630.78125,222.947785 C622.035117,218.925813 613.702272,214.163769 605.782715,208.661652 C597.863157,203.159536 591.139687,197.280304 585.612305,191.023957 C579.226016,197.647937 572.411725,203.527169 565.169434,208.661652 C558.160764,213.630507 549.56068,218.250563 539.369181,222.521822 L538.344727,222.947785 L538.344727,202.926301 C552.663086,195.005402 562.84082,186.503123 568.87793,177.419465 C574.854668,168.426642 577.202292,149.689131 575.920803,121.206931 L575.880859,120.340851 L595.633301,120.340851 Z M725.938477,54 L719.538086,69.987824 L858.417969,69.987824 L858.417969,88.979035 L711.420898,88.979035 L698.018555,120.340851 C697.3651,122.171022 697.3651,123.570924 698.018555,124.540558 C698.672009,125.510192 700.003064,126.085388 702.011719,126.266144 L758.762695,126.266144 L758.762695,97.6958318 L776.824219,97.6958318 L776.824219,126.266144 L854.483398,126.266144 L854.483398,145.15091 L776.824219,145.15091 L776.824219,173.340363 L858.417969,173.340363 L858.417969,192.443879 L776.824219,192.443879 L776.824219,222.947785 L758.762695,222.947785 L758.762695,192.443879 L674.294922,192.443879 L674.294922,173.340363 L758.762695,173.340363 L758.762695,145.15091 L698.018555,145.15091 C690.17806,144.38559 684.619466,142.159917 681.342773,138.473892 C678.066081,134.787868 677.152995,129.222199 678.603516,121.776887 L691.344727,88.979035 L674.294922,88.979035 L674.294922,69.987824 L699.828125,69.987824 L706.388672,54 L725.938477,54 Z M948.066406,91.8999334 C950.017845,100.659241 951.811464,107.919658 953.447266,113.681183 C955.083067,119.442709 956.972064,125.152995 959.114258,130.812043 L971.616211,91.8999334 L988.709961,91.8999334 C984.240192,108.65965 980.699827,121.054832 978.088867,129.08548 C975.477907,137.116128 972.468793,144.865477 969.061523,152.333527 L988.709961,174.371613 L996.914062,174.371613 L1016.87012,152.333527 C1013.65827,145.257816 1010.38418,136.308597 1007.04785,125.485871 C1003.71153,114.663145 1000.77565,103.467832 998.240234,91.8999334 L1016.87012,91.8999334 L1026.16211,130.812043 L1038.16016,91.8999334 L1055.15625,91.8999334 C1051.63557,106.537519 1048.47965,118.231855 1045.68848,126.982941 C1042.8973,135.734027 1039.6281,144.184222 1035.88086,152.333527 L1055.15625,174.371613 L1055.15625,196.056183 C1049.41562,192.025857 1044.22356,187.789203 1039.58008,183.346222 C1034.93659,178.903242 1030.46394,173.8925 1026.16211,168.313996 C1022.93604,172.439988 1018.88102,176.929246 1013.99707,181.781769 C1009.11312,186.634293 1003.86084,191.392431 998.240234,196.056183 L988.709961,196.056183 C982.177187,192.370766 976.47927,188.134113 971.616211,183.346222 C966.753152,178.558332 963.05849,173.54759 960.532227,168.313996 C957.773551,172.116522 953.618278,176.60578 948.066406,181.781769 C942.514535,186.957759 936.750863,191.715897 930.775391,196.056183 L930.775391,174.371613 L950.233398,152.333527 C947.274728,147.032509 943.928049,138.582314 940.193359,126.982941 C936.45867,115.383568 933.319347,103.689232 930.775391,91.8999334 L948.066406,91.8999334 Z M632.869141,54.4194646 L632.869141,73.4194646 L594.869,73.419 L594.869,88.979 L615.51709,88.979035 C619.62233,89.7398617 622.936566,91.3175753 625.459798,93.7121759 L625.758789,94.003449 C628.218741,96.4634006 629.861203,99.7137544 630.686177,103.75451 L630.78125,104.243195 L630.78125,180.158722 L611.994629,180.158722 L611.994629,112.363312 C611.787598,110.667349 611.348633,109.483918 610.677734,108.813019 C610.048767,108.184052 608.914829,107.70443 607.275921,107.374154 L606.941406,107.31009 L562.085938,107.31009 C560.543424,107.537355 559.410612,108.038332 558.6875,108.813019 C558.012596,109.536061 557.584789,110.615164 557.404082,112.050327 L557.369141,112.363312 L557.369141,180.158722 L538.344727,180.158722 L538.344727,104.243195 C538.808844,99.8014404 540.313564,96.3881917 542.858887,94.003449 C545.316439,91.7009389 549.06104,90.0602496 554.092689,89.0813812 L554.636719,88.979035 L574.869,88.979 L574.869,73.419 L536.869141,73.4194646 L536.869141,54.4194646 L632.869141,54.4194646 Z M513.87793,59.2124334 C518.638655,62.9826381 521.168277,67.6014532 521.466797,73.0688787 C522.488932,81.9331365 523.757487,87.4595037 525.272461,89.6479803 C526.729167,91.7522847 528.726278,92.8449042 531.263795,92.925839 L531.570891,92.9306951 L531.570891,112.792512 C522.734242,113.661001 516.216634,111.657258 512.018066,106.781281 C505.720215,99.4673162 512.04248,73.0688787 490.472656,73.0688787 C468.902832,73.0688787 477.535414,95.4389558 467.78125,106.781281 C465.424159,109.52215 459.364041,111.283716 449.600894,112.065978 L449.054688,112.108429 L449.054688,92.9306951 C454.278646,92.9306951 457.65918,88.4412745 459.196289,79.4624334 C461.501953,65.9941717 460.041016,68.5532537 465.009766,61.2954412 C468.322266,56.4568995 476.809896,54.0376287 490.472656,54.0376287 C501.315447,53.7172938 509.117204,55.4422287 513.87793,59.2124334 Z" id="形状结合" fill="#0168B7"></path>
        <path d="M491.339844,253.228058 L485.771484,260.265168 C475.087068,254.154092 468.221508,253.42932 465.174805,258.090851 C460.7229,264.902375 468.700146,267.489943 483.831055,273.013215 C491.748535,275.903351 495.698724,286.741524 489.671485,294.192902 C484.001848,301.202184 475.894531,304.920441 464.731445,301.863801 C461.334736,300.933724 457.050637,297.562061 451.87915,291.74881 L459.049561,286.423127 C465.545492,292.565542 471.637939,294.737254 477.326904,292.938263 C485.860352,290.239777 482.401855,279.657746 472.809081,278.245637 C463.216306,276.833527 448.69873,268.039826 455.524414,255.481965 C458.985671,249.113961 467.181452,245.27998 476.270752,246.815949 C479.420853,247.348274 484.443883,249.485643 491.339844,253.228058 Z" id="S" fill="#F5991E"></path>
        <path d="M537.869141,245.419465 C555.542253,245.419465 569.869141,258.403207 569.869141,274.419465 C569.869141,290.435722 555.542253,303.419465 537.869141,303.419465 C520.196029,303.419465 505.869141,290.435722 505.869141,274.419465 C505.869141,258.403207 520.196029,245.419465 537.869141,245.419465 Z M537.869141,254.419465 C525.718876,254.419465 515.869141,263.37377 515.869141,274.419465 C515.869141,285.46516 525.718876,294.419465 537.869141,294.419465 C550.019405,294.419465 559.869141,285.46516 559.869141,274.419465 C559.869141,263.37377 550.019405,254.419465 537.869141,254.419465 Z" id="O" fill="#F5991E"></path>
        <polygon id="N" fill="#F5991E" points="584.966797 243.634308 584.966797 303.419465 594.633789 300.999543 594.633789 265.92923 632.433105 306.017121 632.433105 245.419465 623.133789 247.501008 623.133789 283.665558"></polygon>
        <path d="M679.869141,245.419465 C688.691963,245.419465 696.66759,248.758859 702.386113,254.139637 L701.869141,254.419465 L695.818446,260.773526 C691.711688,256.863747 685.861542,254.419465 679.369141,254.419465 C666.942734,254.419465 656.869141,263.37377 656.869141,274.419465 C656.869141,285.46516 666.942734,294.419465 679.369141,294.419465 C684.608711,294.419465 689.429981,292.827505 693.254174,290.158055 L693.253906,278.882599 L672.780029,278.882599 L677.029541,269.661896 L702.386113,269.661896 L702.386113,294.532013 L700.401141,296.277465 L700.488495,296.343793 C694.963128,300.752021 687.754496,303.419465 679.869141,303.419465 C662.472171,303.419465 648.369141,290.435722 648.369141,274.419465 C648.369141,258.403207 662.472171,245.419465 679.869141,245.419465 Z" id="G" fill="#F5991E"></path>
        <path d="M746.869141,244.419465 C751.78583,244.419465 756.43518,245.490234 760.565258,247.396094 L760.661133,248.093293 L762.307617,258.308625 L762.30678,258.328311 C758.443025,255.270813 753.393906,253.419465 747.869141,253.419465 C735.718876,253.419465 725.869141,262.37377 725.869141,273.419465 C725.869141,284.46516 735.718876,293.419465 747.869141,293.419465 C753.059787,293.419465 757.830578,291.785272 761.592931,289.051963 L762.307617,289.49173 L761.164695,299.158594 C756.887208,301.241908 752.025175,302.419465 746.869141,302.419465 C729.748313,302.419465 715.869141,289.435722 715.869141,273.419465 C715.869141,257.403207 729.748313,244.419465 746.869141,244.419465 Z" id="C" fill="#F5991E"></path>
        <polygon id="W" fill="#F5991E" points="771.766602 246.86673 780.67334 244.419465 799.302246 282.492219 805.086426 270.092316 794.356445 246.86673 803.143555 244.419465 810.084473 258.3555 817.154785 244.419465 825.663086 246.86673 815.669922 269.419465 821.241699 282.492219 839.567871 244.419465 849.135742 246.86673 821.241699 304.528351 810.451172 281.12259 799.302246 304.528351"></polygon>
        <rect id="." fill="#F5991E" transform="translate(858.869141, 294.419465) rotate(-315.000000) translate(-858.869141, -294.419465) " x="853.869141" y="289.419465" width="10" height="10"></rect>
        <path d="M911.869141,243.419465 C916.78583,243.419465 921.43518,244.490234 925.565258,246.396094 L925.661133,247.093293 L927.307617,257.308625 L927.30678,257.328311 C923.443025,254.270813 918.393906,252.419465 912.869141,252.419465 C900.718876,252.419465 890.869141,261.37377 890.869141,272.419465 C890.869141,283.46516 900.718876,292.419465 912.869141,292.419465 C918.059787,292.419465 922.830578,290.785272 926.592931,288.051963 L927.307617,288.49173 L926.164695,298.158594 C921.887208,300.241908 917.025175,301.419465 911.869141,301.419465 C894.748313,301.419465 880.869141,288.435722 880.869141,272.419465 C880.869141,256.403207 894.748313,243.419465 911.869141,243.419465 Z" id="形状结合" fill="#0168B7"></path>
        <path d="M972.869141,243.419465 C990.542253,243.419465 1004.86914,256.403207 1004.86914,272.419465 C1004.86914,288.435722 990.542253,301.419465 972.869141,301.419465 C955.196029,301.419465 940.869141,288.435722 940.869141,272.419465 C940.869141,256.403207 955.196029,243.419465 972.869141,243.419465 Z M972.869141,252.419465 C960.718876,252.419465 950.869141,261.37377 950.869141,272.419465 C950.869141,283.46516 960.718876,292.419465 972.869141,292.419465 C985.019405,292.419465 994.869141,283.46516 994.869141,272.419465 C994.869141,261.37377 985.019405,252.419465 972.869141,252.419465 Z" id="O" fill="#0168B7"></path>
        <polygon id="M" fill="#0168B7" points="1014.71582 300.439972 1023.68408 302.47464 1031.37451 269.208039 1047.85352 304.215851 1064.21094 269.208039 1072.51221 302.47464 1081.89014 301.419465 1067.51367 240.14798 1048.30298 281.766633 1028.3374 240.14798"></polygon>
    </g>
</svg>